<svg width="798" height="730" viewBox="0 0 798 730" fill="none" xmlns="http://www.w3.org/2000/svg">
<path fill-rule="evenodd" clip-rule="evenodd" d="M323 165H159V1H323V72H317V7H165V159H317V94H323V165Z" fill="#F5F5F5"/>
<path fill-rule="evenodd" clip-rule="evenodd" d="M158 166V0H324V72H323V1H159V165H323V94H324V166H158Z" fill="#F5F5F5"/>
<path fill-rule="evenodd" clip-rule="evenodd" d="M165 7H317V72H316V8H166V158H316V94H317V159H165V7Z" fill="#F5F5F5"/>
<path fill-rule="evenodd" clip-rule="evenodd" d="M285 128H197V38H285V72H278V45L205 45.5V121H278V94H285V128Z" fill="#F5F5F5"/>
<path fill-rule="evenodd" clip-rule="evenodd" d="M205 45.5L278 45V72V64V45L205 45.5V121H278V102V94V121H205V45.5Z" fill="#F5F5F5"/>
<path fill-rule="evenodd" clip-rule="evenodd" d="M196 129V37H286V64V72H285V38H197V128H285V94H286V102V129H196Z" fill="#F5F5F5"/>
<path d="M286 64V72H324V64H286Z" fill="#F5F5F5"/>
<path d="M286 94V102H324V94H286Z" fill="#F5F5F5"/>
<path fill-rule="evenodd" clip-rule="evenodd" d="M481 259H317V95H481V166H475V101H323V253H475V188H481V259Z" fill="#F5F5F5"/>
<path fill-rule="evenodd" clip-rule="evenodd" d="M316 260V94H482V166H481V95H317V259H481V188H482V260H316Z" fill="#F5F5F5"/>
<path fill-rule="evenodd" clip-rule="evenodd" d="M323 101H475V166H474V102H324V252H474V188H475V253H323V101Z" fill="#F5F5F5"/>
<path fill-rule="evenodd" clip-rule="evenodd" d="M443 222H355V132H443V166H436V139L363 139.5V215H436V188H443V222Z" fill="#F5F5F5"/>
<path fill-rule="evenodd" clip-rule="evenodd" d="M363 139.5L436 139V166V158V139L363 139.5V215H436V196V188V215H363V139.5Z" fill="#F5F5F5"/>
<path fill-rule="evenodd" clip-rule="evenodd" d="M354 223V131H444V158V166H443V132H355V222H443V188H444V196V223H354Z" fill="#F5F5F5"/>
<path d="M444 158V166H482V158H444Z" fill="#F5F5F5"/>
<path d="M444 188V196H482V188H444Z" fill="#F5F5F5"/>
<path fill-rule="evenodd" clip-rule="evenodd" d="M481 447H317V283H481V354H475V289H323V441H475V376H481V447Z" fill="#F5F5F5"/>
<path fill-rule="evenodd" clip-rule="evenodd" d="M316 448V282H482V354H481V283H317V447H481V376H482V448H316Z" fill="#F5F5F5"/>
<path fill-rule="evenodd" clip-rule="evenodd" d="M323 289H475V354H474V290H324V440H474V376H475V441H323V289Z" fill="#F5F5F5"/>
<path fill-rule="evenodd" clip-rule="evenodd" d="M443 410H355V320H443V354H436V327L363 327.5V403H436V376H443V410Z" fill="#F5F5F5"/>
<path fill-rule="evenodd" clip-rule="evenodd" d="M363 327.5L436 327V354V346V327L363 327.5V403H436V384V376V403H363V327.5Z" fill="#F5F5F5"/>
<path fill-rule="evenodd" clip-rule="evenodd" d="M354 411V319H444V346V354H443V320H355V410H443V376H444V384V411H354Z" fill="#F5F5F5"/>
<path d="M444 346V354H482V346H444Z" fill="#F5F5F5"/>
<path d="M444 376V384H482V376H444Z" fill="#F5F5F5"/>
<path fill-rule="evenodd" clip-rule="evenodd" d="M481 635H317V471H481V542H475V477H323V629H475V564H481V635Z" fill="#F5F5F5"/>
<path fill-rule="evenodd" clip-rule="evenodd" d="M316 636V470H482V542H481V471H317V635H481V564H482V636H316Z" fill="#F5F5F5"/>
<path fill-rule="evenodd" clip-rule="evenodd" d="M323 477H475V542H474V478H324V628H474V564H475V629H323V477Z" fill="#F5F5F5"/>
<path fill-rule="evenodd" clip-rule="evenodd" d="M443 598H355V508H443V542H436V515L363 515.5V591H436V564H443V598Z" fill="#F5F5F5"/>
<path fill-rule="evenodd" clip-rule="evenodd" d="M363 515.5L436 515V542V534V515L363 515.5V591H436V572V564V591H363V515.5Z" fill="#F5F5F5"/>
<path fill-rule="evenodd" clip-rule="evenodd" d="M354 599V507H444V534V542H443V508H355V598H443V564H444V572V599H354Z" fill="#F5F5F5"/>
<path d="M444 534V542H482V534H444Z" fill="#F5F5F5"/>
<path d="M444 564V572H482V564H444Z" fill="#F5F5F5"/>
<path fill-rule="evenodd" clip-rule="evenodd" d="M323 353H159V189H323V260H317V195H165V347H317V282H323V353Z" fill="#F5F5F5"/>
<path fill-rule="evenodd" clip-rule="evenodd" d="M158 354V188H324V260H323V189H159V353H323V282H324V354H158Z" fill="#F5F5F5"/>
<path fill-rule="evenodd" clip-rule="evenodd" d="M165 195H317V260H316V196H166V346H316V282H317V347H165V195Z" fill="#F5F5F5"/>
<path fill-rule="evenodd" clip-rule="evenodd" d="M285 316H197V226H285V260H278V233L205 233.5V309H278V282H285V316Z" fill="#F5F5F5"/>
<path fill-rule="evenodd" clip-rule="evenodd" d="M205 233.5L278 233V260V252V233L205 233.5V309H278V290V282V309H205V233.5Z" fill="#F5F5F5"/>
<path fill-rule="evenodd" clip-rule="evenodd" d="M196 317V225H286V252V260H285V226H197V316H285V282H286V290V317H196Z" fill="#F5F5F5"/>
<path d="M286 252V260H324V252H286Z" fill="#F5F5F5"/>
<path d="M286 282V290H324V282H286Z" fill="#F5F5F5"/>
<path fill-rule="evenodd" clip-rule="evenodd" d="M323 541H159V377H323V448H317V383H165V535H317V470H323V541Z" fill="#F5F5F5"/>
<path fill-rule="evenodd" clip-rule="evenodd" d="M158 542V376H324V448H323V377H159V541H323V470H324V542H158Z" fill="#F5F5F5"/>
<path fill-rule="evenodd" clip-rule="evenodd" d="M165 383H317V448H316V384H166V534H316V470H317V535H165V383Z" fill="#F5F5F5"/>
<path fill-rule="evenodd" clip-rule="evenodd" d="M285 504H197V414H285V448H278V421L205 421.5V497H278V470H285V504Z" fill="#F5F5F5"/>
<path fill-rule="evenodd" clip-rule="evenodd" d="M205 421.5L278 421V448V440V421L205 421.5V497H278V478V470V497H205V421.5Z" fill="#F5F5F5"/>
<path fill-rule="evenodd" clip-rule="evenodd" d="M196 505V413H286V440V448H285V414H197V504H285V470H286V478V505H196Z" fill="#F5F5F5"/>
<path d="M286 440V448H324V440H286Z" fill="#F5F5F5"/>
<path d="M286 470V478H324V470H286Z" fill="#F5F5F5"/>
<path fill-rule="evenodd" clip-rule="evenodd" d="M323 729H159V565H323V636H317V571H165V723H317V658H323V729Z" fill="#F5F5F5"/>
<path fill-rule="evenodd" clip-rule="evenodd" d="M158 730V564H324V636H323V565H159V729H323V658H324V730H158Z" fill="#F5F5F5"/>
<path fill-rule="evenodd" clip-rule="evenodd" d="M165 571H317V636H316V572H166V722H316V658H317V723H165V571Z" fill="#F5F5F5"/>
<path fill-rule="evenodd" clip-rule="evenodd" d="M285 692H197V602H285V636H278V609L205 609.5V685H278V658H285V692Z" fill="#F5F5F5"/>
<path fill-rule="evenodd" clip-rule="evenodd" d="M205 609.5L278 609V636V628V609L205 609.5V685H278V666V658V685H205V609.5Z" fill="#F5F5F5"/>
<path fill-rule="evenodd" clip-rule="evenodd" d="M196 693V601H286V628V636H285V602H197V692H285V658H286V666V693H196Z" fill="#F5F5F5"/>
<path d="M286 628V636H324V628H286Z" fill="#F5F5F5"/>
<path d="M286 658V666H324V658H286Z" fill="#F5F5F5"/>
<path fill-rule="evenodd" clip-rule="evenodd" d="M165 447H1V283H165V354H159V289H7V441H159V376H165V447Z" fill="#F5F5F5"/>
<path fill-rule="evenodd" clip-rule="evenodd" d="M0 448V282H166V354H165V283H1V447H165V376H166V448H0Z" fill="#F5F5F5"/>
<path fill-rule="evenodd" clip-rule="evenodd" d="M7 289H159V354H158V290H8V440H158V376H159V441H7V289Z" fill="#F5F5F5"/>
<path fill-rule="evenodd" clip-rule="evenodd" d="M127 410H39V320H127V354H120V327L47 327.5V403H120V376H127V410Z" fill="#F5F5F5"/>
<path fill-rule="evenodd" clip-rule="evenodd" d="M47 327.5L120 327V354V346V327L47 327.5V403H120V384V376V403H47V327.5Z" fill="#F5F5F5"/>
<path fill-rule="evenodd" clip-rule="evenodd" d="M38 411V319H128V346V354H127V320H39V410H127V376H128V384V411H38Z" fill="#F5F5F5"/>
<path d="M128 346V354H166V346H128Z" fill="#F5F5F5"/>
<path d="M128 376V384H166V376H128Z" fill="#F5F5F5"/>
<path fill-rule="evenodd" clip-rule="evenodd" d="M165 635H1V471H165V542H159V477H7V629H159V564H165V635Z" fill="#F5F5F5"/>
<path fill-rule="evenodd" clip-rule="evenodd" d="M0 636V470H166V542H165V471H1V635H165V564H166V636H0Z" fill="#F5F5F5"/>
<path fill-rule="evenodd" clip-rule="evenodd" d="M7 477H159V542H158V478H8V628H158V564H159V629H7V477Z" fill="#F5F5F5"/>
<path fill-rule="evenodd" clip-rule="evenodd" d="M127 598H39V508H127V542H120V515L47 515.5V591H120V564H127V598Z" fill="#F5F5F5"/>
<path fill-rule="evenodd" clip-rule="evenodd" d="M47 515.5L120 515V542V534V515L47 515.5V591H120V572V564V591H47V515.5Z" fill="#F5F5F5"/>
<path fill-rule="evenodd" clip-rule="evenodd" d="M38 599V507H128V534V542H127V508H39V598H127V564H128V572V599H38Z" fill="#F5F5F5"/>
<path d="M128 534V542H166V534H128Z" fill="#F5F5F5"/>
<path d="M128 564V572H166V564H128Z" fill="#F5F5F5"/>
<path fill-rule="evenodd" clip-rule="evenodd" d="M165 259H1V95H165V166H159V101H7V253H159V188H165V259Z" fill="#F5F5F5"/>
<path fill-rule="evenodd" clip-rule="evenodd" d="M0 260V94H166V166H165V95H1V259H165V188H166V260H0Z" fill="#F5F5F5"/>
<path fill-rule="evenodd" clip-rule="evenodd" d="M7 101H159V166H158V102H8V252H158V188H159V253H7V101Z" fill="#F5F5F5"/>
<path fill-rule="evenodd" clip-rule="evenodd" d="M127 222H39V132H127V166H120V139L47 139.5V215H120V188H127V222Z" fill="#F5F5F5"/>
<path fill-rule="evenodd" clip-rule="evenodd" d="M47 139.5L120 139V166V158V139L47 139.5V215H120V196V188V215H47V139.5Z" fill="#F5F5F5"/>
<path fill-rule="evenodd" clip-rule="evenodd" d="M38 223V131H128V158V166H127V132H39V222H127V188H128V196V223H38Z" fill="#F5F5F5"/>
<path d="M128 158V166H166V158H128Z" fill="#F5F5F5"/>
<path d="M128 188V196H166V188H128Z" fill="#F5F5F5"/>
<path fill-rule="evenodd" clip-rule="evenodd" d="M475 165H639V1H475V72H481V7H633V159H481V94H475V165Z" fill="#F5F5F5"/>
<path fill-rule="evenodd" clip-rule="evenodd" d="M640 166V0H474V72H475V1H639V165H475V94H474V166H640Z" fill="#F5F5F5"/>
<path fill-rule="evenodd" clip-rule="evenodd" d="M633 7H481V72H482V8H632V158H482V94H481V159H633V7Z" fill="#F5F5F5"/>
<path fill-rule="evenodd" clip-rule="evenodd" d="M513 128H601V38H513V72H520V45L593 45.5V121H520V94H513V128Z" fill="#F5F5F5"/>
<path fill-rule="evenodd" clip-rule="evenodd" d="M593 45.5L520 45V72V64V45L593 45.5V121H520V102V94V121H593V45.5Z" fill="#F5F5F5"/>
<path fill-rule="evenodd" clip-rule="evenodd" d="M602 129V37H512V64V72H513V38H601V128H513V94H512V102V129H602Z" fill="#F5F5F5"/>
<path d="M512 64V72H474V64H512Z" fill="#F5F5F5"/>
<path d="M512 94V102H474V94H512Z" fill="#F5F5F5"/>
<path fill-rule="evenodd" clip-rule="evenodd" d="M633 259H797V95H633V166H639V101H791V253H639V188H633V259Z" fill="#F5F5F5"/>
<path fill-rule="evenodd" clip-rule="evenodd" d="M798 260V94H632V166H633V95H797V259H633V188H632V260H798Z" fill="#F5F5F5"/>
<path fill-rule="evenodd" clip-rule="evenodd" d="M791 101H639V166H640V102H790V252H640V188H639V253H791V101Z" fill="#F5F5F5"/>
<path fill-rule="evenodd" clip-rule="evenodd" d="M671 222H759V132H671V166H678V139L751 139.5V215H678V188H671V222Z" fill="#F5F5F5"/>
<path fill-rule="evenodd" clip-rule="evenodd" d="M751 139.5L678 139V166V158V139L751 139.5V215H678V196V188V215H751V139.5Z" fill="#F5F5F5"/>
<path fill-rule="evenodd" clip-rule="evenodd" d="M760 223V131H670V158V166H671V132H759V222H671V188H670V196V223H760Z" fill="#F5F5F5"/>
<path d="M670 158V166H632V158H670Z" fill="#F5F5F5"/>
<path d="M670 188V196H632V188H670Z" fill="#F5F5F5"/>
<path fill-rule="evenodd" clip-rule="evenodd" d="M633 447H797V283H633V354H639V289H791V441H639V376H633V447Z" fill="#F5F5F5"/>
<path fill-rule="evenodd" clip-rule="evenodd" d="M798 448V282H632V354H633V283H797V447H633V376H632V448H798Z" fill="#F5F5F5"/>
<path fill-rule="evenodd" clip-rule="evenodd" d="M791 289H639V354H640V290H790V440H640V376H639V441H791V289Z" fill="#F5F5F5"/>
<path fill-rule="evenodd" clip-rule="evenodd" d="M671 410H759V320H671V354H678V327L751 327.5V403H678V376H671V410Z" fill="#F5F5F5"/>
<path fill-rule="evenodd" clip-rule="evenodd" d="M751 327.5L678 327V354V346V327L751 327.5V403H678V384V376V403H751V327.5Z" fill="#F5F5F5"/>
<path fill-rule="evenodd" clip-rule="evenodd" d="M760 411V319H670V346V354H671V320H759V410H671V376H670V384V411H760Z" fill="#F5F5F5"/>
<path d="M670 346V354H632V346H670Z" fill="#F5F5F5"/>
<path d="M670 376V384H632V376H670Z" fill="#F5F5F5"/>
<path fill-rule="evenodd" clip-rule="evenodd" d="M633 635H797V471H633V542H639V477H791V629H639V564H633V635Z" fill="#F5F5F5"/>
<path fill-rule="evenodd" clip-rule="evenodd" d="M798 636V470H632V542H633V471H797V635H633V564H632V636H798Z" fill="#F5F5F5"/>
<path fill-rule="evenodd" clip-rule="evenodd" d="M791 477H639V542H640V478H790V628H640V564H639V629H791V477Z" fill="#F5F5F5"/>
<path fill-rule="evenodd" clip-rule="evenodd" d="M671 598H759V508H671V542H678V515L751 515.5V591H678V564H671V598Z" fill="#F5F5F5"/>
<path fill-rule="evenodd" clip-rule="evenodd" d="M751 515.5L678 515V542V534V515L751 515.5V591H678V572V564V591H751V515.5Z" fill="#F5F5F5"/>
<path fill-rule="evenodd" clip-rule="evenodd" d="M760 599V507H670V534V542H671V508H759V598H671V564H670V572V599H760Z" fill="#F5F5F5"/>
<path d="M670 534V542H632V534H670Z" fill="#F5F5F5"/>
<path d="M670 564V572H632V564H670Z" fill="#F5F5F5"/>
<path fill-rule="evenodd" clip-rule="evenodd" d="M475 353H639V189H475V260H481V195H633V347H481V282H475V353Z" fill="#F5F5F5"/>
<path fill-rule="evenodd" clip-rule="evenodd" d="M640 354V188H474V260H475V189H639V353H475V282H474V354H640Z" fill="#F5F5F5"/>
<path fill-rule="evenodd" clip-rule="evenodd" d="M633 195H481V260H482V196H632V346H482V282H481V347H633V195Z" fill="#F5F5F5"/>
<path fill-rule="evenodd" clip-rule="evenodd" d="M513 316H601V226H513V260H520V233L593 233.5V309H520V282H513V316Z" fill="#F5F5F5"/>
<path fill-rule="evenodd" clip-rule="evenodd" d="M593 233.5L520 233V260V252V233L593 233.5V309H520V290V282V309H593V233.5Z" fill="#F5F5F5"/>
<path fill-rule="evenodd" clip-rule="evenodd" d="M602 317V225H512V252V260H513V226H601V316H513V282H512V290V317H602Z" fill="#F5F5F5"/>
<path d="M512 252V260H474V252H512Z" fill="#F5F5F5"/>
<path d="M512 282V290H474V282H512Z" fill="#F5F5F5"/>
<path fill-rule="evenodd" clip-rule="evenodd" d="M475 541H639V377H475V448H481V383H633V535H481V470H475V541Z" fill="#F5F5F5"/>
<path fill-rule="evenodd" clip-rule="evenodd" d="M640 542V376H474V448H475V377H639V541H475V470H474V542H640Z" fill="#F5F5F5"/>
<path fill-rule="evenodd" clip-rule="evenodd" d="M633 383H481V448H482V384H632V534H482V470H481V535H633V383Z" fill="#F5F5F5"/>
<path fill-rule="evenodd" clip-rule="evenodd" d="M513 504H601V414H513V448H520V421L593 421.5V497H520V470H513V504Z" fill="#F5F5F5"/>
<path fill-rule="evenodd" clip-rule="evenodd" d="M593 421.5L520 421V448V440V421L593 421.5V497H520V478V470V497H593V421.5Z" fill="#F5F5F5"/>
<path fill-rule="evenodd" clip-rule="evenodd" d="M602 505V413H512V440V448H513V414H601V504H513V470H512V478V505H602Z" fill="#F5F5F5"/>
<path d="M512 440V448H474V440H512Z" fill="#F5F5F5"/>
<path d="M512 470V478H474V470H512Z" fill="#F5F5F5"/>
<path fill-rule="evenodd" clip-rule="evenodd" d="M475 729H639V565H475V636H481V571H633V723H481V658H475V729Z" fill="#F5F5F5"/>
<path fill-rule="evenodd" clip-rule="evenodd" d="M640 730V564H474V636H475V565H639V729H475V658H474V730H640Z" fill="#F5F5F5"/>
<path fill-rule="evenodd" clip-rule="evenodd" d="M633 571H481V636H482V572H632V722H482V658H481V723H633V571Z" fill="#F5F5F5"/>
<path fill-rule="evenodd" clip-rule="evenodd" d="M513 692H601V602H513V636H520V609L593 609.5V685H520V658H513V692Z" fill="#F5F5F5"/>
<path fill-rule="evenodd" clip-rule="evenodd" d="M593 609.5L520 609V636V628V609L593 609.5V685H520V666V658V685H593V609.5Z" fill="#F5F5F5"/>
<path fill-rule="evenodd" clip-rule="evenodd" d="M602 693V601H512V628V636H513V602H601V692H513V658H512V666V693H602Z" fill="#F5F5F5"/>
<path d="M512 628V636H474V628H512Z" fill="#F5F5F5"/>
<path d="M512 658V666H474V658H512Z" fill="#F5F5F5"/>
</svg>
